<svg width="15" height="15" viewBox="0 0 15 15" fill="none" xmlns="http://www.w3.org/2000/svg">
<path d="M7.5 0C7.78499 0 8.04265 0.177437 8.15538 0.45132L9.91714 4.73189L14.3523 5.1623C14.6361 5.18984 14.877 5.39142 14.965 5.67502C15.0531 5.95863 14.9715 6.26987 14.7573 6.46667L11.411 9.54263L12.3903 14.0892C12.453 14.3801 12.3442 14.6821 12.1137 14.8574C11.8831 15.0327 11.575 15.0476 11.3299 14.8954L7.5 12.5158L3.67009 14.8954C3.42504 15.0476 3.11691 15.0327 2.88635 14.8574C2.65578 14.6821 2.54701 14.3801 2.60967 14.0892L3.58899 9.54263L0.24265 6.46667C0.0285421 6.26987 -0.0531143 5.95863 0.0349532 5.67502C0.123021 5.39142 0.363921 5.18984 0.647695 5.1623L5.08286 4.73189L6.84462 0.45132C6.95734 0.177437 7.21501 0 7.5 0Z" fill="#5AABEC"/>
</svg>
