<svg width="17" height="17" viewBox="0 0 17 17" fill="none" xmlns="http://www.w3.org/2000/svg">
<path d="M8.5 1C8.78499 1 9.04265 1.17744 9.15538 1.45132L10.9171 5.73189L15.3523 6.1623C15.6361 6.18984 15.877 6.39142 15.965 6.67502C16.0531 6.95863 15.9715 7.26987 15.7573 7.46667L12.411 10.5426L13.3903 15.0892C13.453 15.3801 13.3442 15.6821 13.1137 15.8574C12.8831 16.0327 12.575 16.0476 12.3299 15.8954L8.5 13.5158L4.67009 15.8954C4.42504 16.0476 4.11691 16.0327 3.88635 15.8574C3.65578 15.6821 3.54701 15.3801 3.60967 15.0892L4.58899 10.5426L1.24265 7.46667C1.02854 7.26987 0.946886 6.95863 1.03495 6.67502C1.12302 6.39142 1.36392 6.18984 1.6477 6.1623L6.08286 5.73189L7.84462 1.45132C7.95734 1.17744 8.21501 1 8.5 1Z" stroke="#5AABEC" stroke-width="2" stroke-linejoin="round"/>
</svg>
